<?xml version="1.0" encoding="utf-8"?>
<!-- Generator: Adobe Illustrator 19.2.0, SVG Export Plug-In . SVG Version: 6.00 Build 0)  -->
<svg version="1.1" xmlns="http://www.w3.org/2000/svg" xmlns:xlink="http://www.w3.org/1999/xlink" x="0px" y="0px"
	 viewBox="0 0 852.2 367.5" style="enable-background:new 0 0 852.2 367.5;" xml:space="preserve">
<style type="text/css">
	.st0{fill:#CC092F;}
	.st1{fill:#FFFFFF;}
</style>
<g id="Layer_1">
</g>
<g id="PROPORÇ_x2DC_AO_E_REGRAS">
	<path d="M186.6,122.5c-13.2,0-27.6,1.2-41.8,3.6c14.4-18.5,37.2-30.4,62.7-30.4c18.8,0,37.6,7.1,50.2,17.6c2.3,1.9,4,2.1,5.8,0.3
		c1.8-1.7,1.6-3.5-0.4-5.7c-16.5-19.2-40.8-32.1-69.4-31.6c-37.4,0.7-69.2,24.4-81.3,57.2c-11.1,3.5-21.3,7.6-30.2,12.6
		c-2.5,1.4-3.3,3.1-2.5,5.2c0.9,1.9,2.6,2.6,5.1,1.9c7.7-2.2,15.6-4.1,23.9-5.9c-0.9,4.3-1.4,8.8-1.4,13.5
		c-0.7,30.2,15.5,58.9,40.4,74.7c2.5,1.6,4.6,1.6,6-0.3c1.4-1.9,1.2-3.6-0.9-5.5c-15.8-14.2-24.6-35.3-24.6-56.2
		c0-10.5,2.1-20.7,6.1-29.9c8.3-0.7,17.2-1.2,27.1-1.2c63.9,0,117.9,21.1,117.9,48.7c0,14-17.7,28-38.8,37.3c-5.1,2.2-5.6,3.8-4.9,6
		c0.7,2.1,3,2.8,5.6,1.9c36.9-12.1,64.8-32,64.8-56C306.1,147.7,253.4,122.5,186.6,122.5z M380.9,195.9c-12.2,0-24.9,2.8-33.4,5.7
		v132.1c4.4-1.7,9.3-4,12.7-7.2c1.9-1.7,3-3.8,3-6.8v-29.8c5.1,1.1,10.8,1.7,16.7,1.7c27.4,0,46-19,46-49.2
		C426,211.9,407.9,195.9,380.9,195.9z M379.4,278.8c-6.5,0-12.2-0.8-16.2-1.9v-65.7c6.3-1.7,12.2-2.5,17.1-2.5
		c19,0,29.6,12.4,29.6,33.6C410,266.6,397.5,278.8,379.4,278.8z M212.5,216.2l-18.9,10.9V292h20.2c1.9,0,3.4-1.5,3.4-3.4v-70
		C217.2,216,214.6,215,212.5,216.2z M173,241.5v48.4c0,1.2,1,2.2,2.2,2.2h13v-61.9l-13,7.5C173.9,238.4,173,239.7,173,241.5z
		 M636.9,195.9c-10.8,0-22,2.8-31.5,7.4c-6.6-4.9-15.2-7.4-25.7-7.4c-12.5,0-24.5,2.3-35.5,5.5v88.9c2.1,0.4,4.8,0.8,7.6,0.8
		s6.1-0.4,8.2-0.8v-79.2c5.3-1.5,10.8-2.5,18.8-2.5c17.3,0,25.1,9.3,25.1,30v51.7c2.1,0.4,4.7,0.8,7.6,0.8c2.9,0,6.1-0.4,8.2-0.8
		v-51.9c0-10.3-1.9-18.6-5.7-25.3c7.2-3,14.6-4.6,22-4.6c17.5,0,26.4,9.1,26.4,30.4v51.3c2.1,0.4,4.8,0.8,7.6,0.8s6.1-0.4,8.2-0.8
		v-51.9C678.1,210.4,662.1,195.9,636.9,195.9z M772.7,237c0-25.3-14.8-41-36.5-41c-24.9,0-40.7,19.4-40.7,48.3
		c0,29.3,16.3,47.5,44.5,47.5c10.3,0,20.7-2.1,27.2-4.9c0.4-1.9,0.6-4,0.6-6.1c0-2.1-0.2-4.2-0.6-6.1c-8.2,2.7-16.5,4.6-26,4.6
		c-19,0-29.5-12.2-30.4-31.9h61.4C772.5,244.9,772.7,239.6,772.7,237z M711,235.4c1.3-17.1,11.8-27.4,25.1-27.4
		c14.1,0,21.9,11.4,21.9,27.4H711z M506.3,197.4v92.9c2.1,0.4,4.8,0.8,7.6,0.8c2.8,0,6.1-0.4,8.2-0.8v-92.9
		c-2.1-0.4-4.8-0.8-7.6-0.8C511.7,196.7,508.4,197.1,506.3,197.4z M514.5,164.8c-3,0-6.3,0-8.5,0.6c-0.2,2.3-0.4,5.3-0.4,7.8
		c0,2.5,0.2,5.5,0.4,8c2.1,0.4,5.1,0.6,8.2,0.6c3,0,6.5-0.2,8.5-0.6c0.2-2.5,0.4-5.5,0.4-8c0-2.5-0.2-5.5-0.4-7.8
		C520.6,164.8,517.5,164.8,514.5,164.8z M484.5,196.7c-10.1,0-18.6,4.8-25.1,13.7c-0.2-4.4-0.8-8.9-1.5-12.9
		c-1.9-0.6-4.6-0.8-6.7-0.8c-2.5,0-4.9,0.4-6.8,0.8v92.9c2.1,0.4,4.8,0.8,7.6,0.8s6.1-0.4,8.2-0.8v-52.4c0-16.9,10.6-28.3,24.1-28.3
		c2.5,0,5.3,0,7.2,0.6c0.6-2.3,0.8-4.8,0.8-6.8c0-1.9-0.2-4-0.6-5.9C489.4,197.1,487,196.7,484.5,196.7z"/>
</g>
</svg>
